<svg width="204" height="204" viewBox="0 0 204 204" fill="none" xmlns="http://www.w3.org/2000/svg">
<path d="M 171 140 C 212 141 168.435 183.543 145.182 194.409 C 121.928 205.275 95.4333 206.975 70.9821 199.169 C 46.5309 191.364 25.9211 174.628 13.2642 152.299 C 0.6073 129.97 -3.1662 103.69 2.6965 78.7016 C 8.5592 53.7134 23.627 31.854 44.8941 17.4842 C 66.1612 3.1144 92.0641 -2.7094 117.435 1.1746 C 124 3 127 20 114.244 22.0179 C 94.1181 18.9368 73.5701 23.5566 56.6994 34.9558 C 39.8288 46.355 27.8758 63.6955 23.2251 83.518 C 18.5744 103.34 21.5679 124.188 31.6082 141.901 C 41.6486 159.614 57.9979 172.89 77.3943 179.082 C 96.7908 185.274 117.809 183.925 136.255 175.305 C 154.701 166.686 167 151 171 140 Z" fill="url(#paint0_linear_16_344)"/>
<path d="M 76 96 L 73 115 H 80 C 80 115 80 107 84 90 C 60 91 63 87 63 96 Z Z Z M 109.525 102.652 C 109.525 95.848 105.637 89.8 98.5807 89.8 C 91.4887 89.8 87.6007 95.848 87.6007 102.652 C 87.6007 109.456 91.4887 115.504 99 116 C 105.637 115.504 109.525 109.456 109.525 102.652 Z M 102.829 102.652 C 102.829 106 101.533 109.276 98.5807 109.276 C 95.5927 109.276 94.2967 106 94.2967 102.652 C 94.2967 99.304 95.5927 96.028 98.5807 96.028 C 101.533 96.028 102.829 99.304 102.829 102.652 Z M 124.381 96.028 C 124.381 92.608 121.609 89.944 118.045 89.944 C 114.481 89.944 111.709 92.608 111.709 96.028 C 111.709 99.448 114.481 102.112 118.045 102.112 C 121.609 102.112 124.381 99.448 124.381 96.028 Z M 120.133 96.028 C 120.133 97.288 119.233 98.152 118.045 98.152 C 116.857 98.152 115.957 97.288 115.957 96.028 C 115.957 94.768 116.857 93.904 118.045 93.904 C 119.233 93.904 120.133 94.768 120.133 96.028 Z M 137.881 90.268 H 132.373 L 114.013 115 H 119.521 L 137.881 90.268 Z M 127.513 109.24 C 127.513 112.66 130.285 115.324 133.849 115.324 C 137.413 115.324 140.185 112.66 140.185 109.24 C 140.185 105.82 137.413 103.156 133.849 103.156 C 130.285 103.156 127.513 105.82 127.513 109.24 Z M 131.761 109.24 C 131.761 107.98 132.661 107.116 133.849 107.116 C 135.037 107.116 135.937 107.98 135.937 109.24 C 135.937 110.5 135.037 111.364 133.849 111.364 C 132.661 111.364 131.761 110.5 131.761 109.24 Z" fill="white"/>
<defs>
<linearGradient id="paint0_linear_16_344" x1="-12.4348" y1="91.2145" x2="228.124" y2="92.098" gradientUnits="userSpaceOnUse">
<stop stop-color="#AA367C"/>
<stop offset="1" stop-color="#4A2FBD"/>
</linearGradient>
</defs>
</svg>
