<svg width="204" height="204" viewBox="0 0 204 204" fill="none" xmlns="http://www.w3.org/2000/svg">
<path d="M 183 115 C 203 113 204 121 196.436 140.546 C 186.737 164.31 168.435 183.543 145.182 194.409 C 121.928 205.275 95.4333 206.975 70.9821 199.169 C 46.5309 191.364 25.9211 174.628 13.2642 152.299 C 0.6073 129.97 -3.1662 103.69 2.6965 78.7016 C 8.5592 53.7134 23.627 31.854 44.8941 17.4842 C 66.1612 3.1144 92.0641 -2.7094 117.435 1.1746 C 127 3 130.877 24.5642 114.244 22.0179 C 94.1181 18.9368 73.5701 23.5566 56.6994 34.9558 C 39.8288 46.355 27.8758 63.6955 23.2251 83.518 C 18.5744 103.34 21.5679 124.188 31.6082 141.901 C 41.6486 159.614 57.9979 172.89 77.3943 179.082 C 96.7908 185.274 117.809 183.925 136.255 175.305 C 154.701 166.686 168 152 176.914 132.578 Z" fill="url(#paint0_linear_16_339)"/>
<path d="M 76 96 L 73 115 H 80 C 80 115 80 107 84 90 C 60 91 63 87 63 96 Z Z M 94.3971 104.92 C 94.9371 104.056 95.9811 103.372 97.3131 103.372 C 99.1491 103.372 100.481 104.668 100.481 106.432 C 100.481 108.196 99.1491 109.6 97.3131 109.6 C 95.4051 109.6 94.3611 108.34 94.2531 107.224 H 87.9171 C 88.0251 112.228 91.6971 115.504 97.4211 115.504 C 102.785 115.504 106.889 111.508 106.889 106.108 C 106.889 101.644 103.685 97.936 98.9691 97.936 C 97.4211 97.936 96.0531 98.332 94.8651 99.088 L 95.3331 95.92 H 105.161 V 90 H 91 L 88.5291 103.696 L 94.3971 104.92 Z M 121.357 96.028 C 121.357 92.608 118.585 89.944 115.021 89.944 C 111.457 89.944 108.685 92.608 108.685 96.028 C 108.685 99.448 111.457 102.112 115.021 102.112 C 118.585 102.112 121.357 99.448 121.357 96.028 Z M 117.109 96.028 C 117.109 97.288 116.209 98.152 115.021 98.152 C 113.833 98.152 112.933 97.288 112.933 96.028 C 112.933 94.768 113.833 93.904 115.021 93.904 C 116.209 93.904 117.109 94.768 117.109 96.028 Z M 134.857 90.268 H 129.349 L 110.989 115 H 116.497 L 134.857 90.268 Z M 124.489 109.24 C 124.489 112.66 127.261 115.324 130.825 115.324 C 134.389 115.324 137.161 112.66 137.161 109.24 C 137.161 105.82 134.389 103.156 130.825 103.156 C 127.261 103.156 124.489 105.82 124.489 109.24 Z M 128.737 109.24 C 128.737 107.98 129.637 107.116 130.825 107.116 C 132.013 107.116 132.913 107.98 132.913 109.24 C 132.913 110.5 132.013 111.364 130.825 111.364 C 129.637 111.364 128.737 110.5 128.737 109.24 Z" fill="white"/>
<defs>
<linearGradient id="paint0_linear_16_339" x1="-12.4348" y1="91.2145" x2="228.124" y2="92.098" gradientUnits="userSpaceOnUse">
<stop stop-color="#AA367C"/>
<stop offset="1" stop-color="#4A2FBD"/>
</linearGradient>
</defs>
</svg>
